# xmcd
#
# Track frame offsets:
#	150
#	16840
#	33976
#	49678
#	67481
#	83167
#	99451
#	115864
#	130527
#	147155
#	165497
#	182658
#	200803
#	216632
#
# Disc length: 3143 seconds
#
# Revision: 0
# Processed by: cddbd v1.5.2PL0 Copyright (c) Steve Scherf et al.
# Submitted via: audiograbber 1.83.01
#
DISCID=c80c450e
DTITLE=ANDREA BERG - SCHWERELOS
DYEAR=2010
DGENRE=SCHLAGER
TTITLE0=DU KANNST NOCH NICHT MAL RICHTIG LÜGEN
TTITLE1=ICH LIEBE DAS LEBEN
TTITLE2=SCHWERELOS
TTITLE3=ICH WERDE WIEDER TANZEN GEH'N
TTITLE4=ZUM TEUFEL MIT DER EINSAMKEIT
TTITLE5=ICH LIEBE DICH
TTITLE6=SAG MIR DOCH
TTITLE7=ENDLICH DU
TTITLE8=SCHENK MIR EINEN STERN
TTITLE9=NEIN !
TTITLE10=HALT MEIN HERZ IN DER HAND
TTITLE11=ICH HALT DIE ERDE AN
TTITLE12=WER EINMAL LÜGT
TTITLE13=DIESE TRÄNE
EXTD=
EXTT0=
EXTT1=
EXTT2=
EXTT3=
EXTT4=
EXTT5=
EXTT6=
EXTT7=
EXTT8=
EXTT9=
EXTT10=
EXTT11=
EXTT12=
EXTT13=
PLAYORDER=
